<svg xmlns="http://www.w3.org/2000/svg" width="1600" height="900" viewBox="0 0 1600 900"><rect width="1600" height="900" fill="#10121a"/><rect x="50" y="50" width="1500" height="800" rx="34" fill="#171a25" stroke="#34394c"/><g font-family="DejaVu Sans"><text x="120" y="150" fill="#70e0ed" font-size="25" letter-spacing="5">LOPTR LAB</text><text x="120" y="230" fill="#f8fafc" font-size="53" font-weight="bold">Made Sick Story Finder</text><text x="120" y="305" fill="#bfc8dc" font-size="28">Find the story in a</text><text x="120" y="345" fill="#bfc8dc" font-size="28">public Bluesky author feed.</text><rect x="120" y="425" width="370" height="64" rx="32" fill="#70e0ed"/><text x="305" y="466" text-anchor="middle" fill="#11131b" font-size="24" font-weight="bold">READ-ONLY · PUBLIC DATA</text><text x="120" y="590" fill="#f8fafc" font-size="32">Your choices stay yours.</text><text x="120" y="640" fill="#bfc8dc" font-size="23">No sign-in or automatic publishing.</text><text x="900" y="150" fill="#bfc8dc" font-size="21" letter-spacing="2">ILLUSTRATIVE WORKFLOW</text><g transform="translate(650,270)"><rect width="800" height="100" rx="18" fill="#20232f" stroke="#40465a"/><circle cx="52" cy="50" r="22" fill="#70e0ed"/><text x="52" y="58" text-anchor="middle" fill="#11131b" font-size="24" font-weight="bold">1</text><text x="98" y="58" fill="#f3f4f6" font-size="29">Choose a public author</text></g><g transform="translate(650,395)"><rect width="800" height="100" rx="18" fill="#20232f" stroke="#40465a"/><circle cx="52" cy="50" r="22" fill="#70e0ed"/><text x="52" y="58" text-anchor="middle" fill="#11131b" font-size="24" font-weight="bold">2</text><text x="98" y="58" fill="#f3f4f6" font-size="29">Filter words, phrase and date</text></g><g transform="translate(650,520)"><rect width="800" height="100" rx="18" fill="#20232f" stroke="#40465a"/><circle cx="52" cy="50" r="22" fill="#70e0ed"/><text x="52" y="58" text-anchor="middle" fill="#11131b" font-size="24" font-weight="bold">3</text><text x="98" y="58" fill="#f3f4f6" font-size="29">Select source references</text></g><g transform="translate(650,645)"><rect width="800" height="100" rx="18" fill="#20232f" stroke="#40465a"/><circle cx="52" cy="50" r="22" fill="#70e0ed"/><text x="52" y="58" text-anchor="middle" fill="#11131b" font-size="24" font-weight="bold">4</text><text x="98" y="58" fill="#f3f4f6" font-size="29">Export a local story ledger</text></g><text x="120" y="785" fill="#bfc8dc" font-size="23">Creator ownership · Clear sources · Space for understanding</text></g></svg>